<?xml version="1.0" standalone="no"?>
<!DOCTYPE svg PUBLIC "-//W3C//DTD SVG 20010904//EN"
 "http://www.w3.org/TR/2001/REC-SVG-20010904/DTD/svg10.dtd">
<svg version="1.0" xmlns="http://www.w3.org/2000/svg"
 width="949.000000pt" height="263.000000pt" viewBox="0 0 949.000000 263.000000"
 preserveAspectRatio="xMidYMid meet">

<g transform="translate(0.000000,263.000000) scale(0.100000,-0.100000)"
fill="#000000" stroke="none">
<path d="M890 2395 c-201 -45 -357 -127 -502 -263 -235 -221 -346 -509 -318
-826 17 -189 58 -313 155 -463 52 -80 188 -233 207 -233 5 0 33 20 61 45 29
25 81 60 116 77 58 29 74 32 182 36 l119 4 0 42 c0 70 -47 150 -158 270 -132
142 -183 237 -190 354 -4 69 -1 84 21 128 73 143 210 174 349 77 23 -15 57
-49 76 -75 20 -26 39 -45 43 -42 4 2 10 17 14 33 9 40 99 129 160 157 88 42
167 29 243 -40 61 -55 76 -95 76 -201 0 -78 -4 -100 -31 -162 -41 -97 -100
-182 -238 -346 -65 -76 -115 -140 -113 -142 2 -2 23 12 48 31 124 96 295 181
535 269 191 69 242 106 290 211 99 216 7 543 -214 763 -128 128 -259 208 -440
268 -101 34 -114 36 -266 39 -115 3 -178 0 -225 -11z"/>
<path d="M1240 1587 c-47 -15 -118 -89 -155 -159 -17 -32 -36 -58 -42 -58 -7
0 -13 4 -13 9 0 17 -121 139 -154 155 -86 41 -164 7 -173 -74 -9 -85 46 -188
181 -340 107 -119 164 -254 153 -360 -6 -56 2 -80 28 -80 13 0 57 94 78 166
20 68 65 155 137 265 128 194 164 317 123 410 -15 33 -30 50 -56 62 -40 19
-57 20 -107 4z"/>
<path d="M4250 1260 l0 -340 28 -1 c15 0 36 -2 47 -4 11 -2 30 -2 43 2 l22 5
0 339 0 339 -70 0 -70 0 0 -340z"/>
<path d="M4480 1260 l0 -341 68 3 67 3 5 168 c5 165 6 169 30 187 34 26 69 31
107 15 54 -23 63 -55 63 -225 l0 -150 70 0 70 0 0 168 c0 159 -1 171 -25 218
-35 69 -80 98 -165 102 -53 3 -75 0 -108 -17 l-42 -21 0 115 0 115 -70 0 -70
0 0 -340z"/>
<path d="M6086 1569 c-65 -15 -106 -47 -132 -103 -28 -60 -30 -93 -9 -143 30
-71 72 -99 201 -133 108 -29 143 -47 151 -78 5 -20 0 -31 -26 -54 -25 -23 -41
-28 -80 -28 -57 0 -120 21 -174 56 -22 14 -40 24 -41 22 -25 -37 -66 -107 -66
-112 0 -4 35 -24 78 -44 75 -36 80 -37 192 -37 99 0 121 3 156 22 84 45 127
137 104 223 -19 71 -66 104 -204 144 -138 40 -172 67 -147 115 24 44 116 45
209 1 36 -17 66 -29 68 -28 1 2 16 29 32 60 l30 56 -58 26 c-96 43 -196 55
-284 35z"/>
<path d="M3055 1406 c-22 -7 -54 -20 -72 -29 -42 -22 -50 -21 -28 3 18 20 17
20 -48 20 l-67 0 0 -240 0 -241 63 3 62 3 5 168 5 169 28 24 c44 38 82 30 120
-26 14 -20 17 -50 17 -182 l0 -158 70 0 70 0 0 161 0 161 34 34 c37 37 64 42
101 18 42 -28 55 -81 55 -233 l0 -139 55 -7 c30 -3 59 -4 65 0 6 4 10 73 10
181 0 152 -2 180 -19 212 -26 51 -57 77 -118 98 -46 16 -58 17 -100 6 -26 -7
-65 -24 -87 -38 l-38 -26 -22 21 c-19 18 -97 52 -115 50 -3 0 -24 -6 -46 -13z"/>
<path d="M5807 1405 c-22 -7 -50 -23 -63 -36 l-24 -22 0 27 0 27 -67 -3 -68
-3 -3 -237 -2 -238 70 0 70 0 0 123 c0 140 9 183 46 218 21 20 36 24 81 23
l55 0 -6 29 c-3 16 -6 47 -6 68 0 34 -3 39 -22 39 -13 -1 -40 -7 -61 -15z"/>
<path d="M5175 1394 c-124 -44 -185 -175 -146 -313 18 -63 89 -135 160 -162
74 -28 163 -21 241 19 30 15 55 32 55 38 0 5 -17 29 -37 53 l-37 44 -31 -27
c-26 -22 -41 -26 -91 -26 -50 0 -63 4 -88 28 -16 15 -32 37 -36 50 l-6 22 180
0 181 0 0 48 c0 26 -11 72 -23 102 -47 115 -191 171 -322 124z m154 -111 c17
-16 33 -40 37 -55 l6 -28 -100 0 c-56 0 -103 4 -106 8 -3 5 3 24 12 43 32 63
102 77 151 32z"/>
<path d="M6646 1395 c-99 -38 -156 -121 -156 -230 0 -148 109 -254 261 -255
81 0 143 21 187 63 l32 31 -36 33 -36 32 -28 -20 c-63 -47 -155 -42 -202 11
-53 58 -47 60 148 60 l177 0 -5 69 c-10 139 -86 212 -227 218 -50 2 -89 -2
-115 -12z m170 -119 c58 -58 50 -66 -71 -66 -120 0 -126 5 -74 65 26 29 38 35
71 35 32 0 47 -7 74 -34z"/>
<path d="M7175 1398 c-87 -30 -145 -120 -145 -222 1 -79 24 -131 84 -183 34
-30 63 -45 102 -54 51 -11 59 -10 121 14 37 15 68 25 70 24 11 -11 -27 -93
-50 -111 -42 -31 -126 -28 -194 7 l-51 27 -26 -45 c-14 -24 -26 -46 -26 -48 0
-12 129 -60 178 -67 94 -13 209 17 254 67 43 48 48 81 48 343 l0 250 -60 0
c-53 0 -60 -2 -60 -20 0 -11 -1 -20 -2 -20 -2 0 -30 11 -63 25 -64 26 -129 31
-180 13z m174 -112 c37 -20 51 -55 51 -135 0 -58 -3 -71 -24 -90 -55 -51 -150
-31 -186 40 -33 64 -23 128 26 174 31 29 89 33 133 11z"/>
<path d="M8415 1398 c-16 -6 -41 -20 -55 -31 l-25 -19 -3 26 c-3 26 -5 27 -65
24 l-62 -3 0 -240 0 -240 73 -3 72 -3 0 142 c0 108 4 149 16 174 19 40 73 69
120 63 l34 -4 0 63 0 63 -37 -1 c-21 0 -51 -5 -68 -11z"/>
<path d="M8632 1391 c-74 -26 -80 -33 -52 -74 l23 -33 51 13 c118 31 196 4
196 -68 0 -28 -3 -31 -22 -25 -137 37 -262 -4 -298 -98 -24 -65 18 -147 94
-182 69 -32 121 -31 189 5 l55 29 11 -24 c9 -21 17 -24 70 -24 87 0 92 3 70
48 -15 30 -19 66 -21 189 l-3 151 -31 39 c-18 22 -49 45 -75 55 -61 23 -188
23 -257 -1z m206 -274 c6 -5 12 -22 12 -36 0 -63 -100 -103 -152 -61 -50 39
-31 95 37 113 26 6 87 -3 103 -16z"/>
<path d="M3677 1393 c-14 -13 -7 -288 8 -339 17 -59 71 -115 133 -139 37 -15
49 -16 87 -5 24 7 59 23 77 37 l33 24 3 -30 c3 -29 6 -31 45 -31 23 0 52 3 65
6 l22 6 0 239 0 239 -70 0 -70 0 0 -150 c0 -167 -9 -201 -57 -217 -37 -12 -90
0 -117 26 -19 20 -21 34 -24 181 l-3 160 -63 0 c-34 0 -66 -3 -69 -7z"/>
<path d="M7637 1393 c-11 -11 -8 -278 4 -335 18 -86 110 -158 201 -158 14 0
51 13 82 28 59 30 66 30 66 0 0 -16 9 -18 66 -18 l67 0 -7 46 c-3 26 -6 136
-6 245 l0 199 -64 0 -64 0 -4 -152 c-2 -94 -9 -162 -16 -175 -26 -48 -107 -68
-150 -37 -44 31 -52 63 -52 219 l0 145 -58 0 c-32 0 -62 -3 -65 -7z"/>
<path d="M2235 1204 c-88 -13 -219 -57 -325 -109 -36 -18 -130 -56 -210 -85
-178 -64 -302 -120 -395 -176 -78 -47 -150 -106 -165 -134 -9 -17 -3 -16 47 8
99 45 243 41 243 -7 0 -40 44 -137 75 -166 39 -37 98 -56 171 -56 119 0 239
64 356 190 55 59 148 206 136 215 -10 8 -157 46 -176 46 -14 0 -22 5 -20 13 6
19 114 69 277 128 247 89 256 94 204 118 -28 13 -167 22 -218 15z"/>
</g>
</svg>
